<svg xmlns="http://www.w3.org/2000/svg" width="1400" height="870" fill="none" viewBox="0 0 1400 870"><g clip-path="url(#clip0)"><rect width="1400" height="869.433" fill="#fff"/><rect width="76" height="1080" fill="#FBFBFB"/><rect width="368" height="1080" x="76" fill="#EDF3F8"/><rect width="1476" height="1022" x="444" y="58" fill="#D8DFE9" fill-opacity=".85"/><rect width="1476" height="58" x="444" fill="#EDF3F8"/><path fill="#E3E9F4" d="M444 20C444 17.2386 446.239 15 449 15H623C625.761 15 628 17.2386 628 20V58H444V20Z"/><rect width="183" height="3" x="445" y="54" fill="#37455A"/><rect width="49" height="49" x="14" y="15" fill="#2B384C" rx="10"/><rect width="49" height="49" x="14" y="81" fill="#304666" fill-opacity=".11" rx="10"/><rect width="49" height="49" x="14" y="147" fill="#304666" fill-opacity=".11" rx="10"/><rect width="49" height="49" x="14" y="792" fill="#304666" fill-opacity=".11" rx="10"/><rect width="49" height="49" x="14" y="729" fill="#304666" fill-opacity=".11" rx="10"/><rect width="343" height="57" x="89" y="56" fill="#E3E9F4" rx="5"/><rect width="16" height="16" x="101" y="129" fill="#C8D1DE" rx="2"/><rect width="16" height="16" x="101" y="76" fill="#2B384C" rx="2"/><rect width="16" height="16" x="101" y="175" fill="#C8D1DE" rx="2"/><rect width="16" height="16" x="101" y="229" fill="#C8D1DE" rx="2"/><rect width="16" height="16" x="101" y="283" fill="#C8D1DE" rx="2"/><rect width="16" height="16" x="101" y="337" fill="#C8D1DE" rx="2"/><rect width="16" height="16" x="101" y="391" fill="#C8D1DE" rx="2"/><rect width="189" height="16" x="138" y="129" fill="#C8D1DE" rx="2"/><rect width="189" height="16" x="138" y="76" fill="#2B384D" rx="2"/><rect width="189" height="16" x="138" y="175" fill="#C8D1DE" rx="2"/><rect width="189" height="16" x="138" y="229" fill="#C8D1DE" rx="2"/><rect width="189" height="16" x="138" y="283" fill="#C8D1DE" rx="2"/><rect width="189" height="16" x="138" y="337" fill="#C8D1DE" rx="2"/><rect width="189" height="16" x="138" y="391" fill="#C8D1DE" rx="2"/><rect width="19" height="19" x="401" y="24" fill="#C8D1DE" rx="5"/><rect width="19" height="19" x="365" y="24" fill="#C8D1DE" rx="5"/></g><defs><clipPath id="clip0"><rect width="1400" height="869.433" fill="#fff"/></clipPath></defs></svg>